<?xml version="1.0" encoding="UTF-8"?>
<svg id="katman_2" data-name="katman 2" xmlns="http://www.w3.org/2000/svg" viewBox="0 0 440.71 139.69">
  <defs>
    <style>.cls-1 {
  fill: #fff;
}

</style>
  </defs>
  <g id="katman_1" data-name="katman 1">
    <g>
      <path class="cls-1" d="M103.08,128.38c-10.27-7.14-15.4-19.1-15.4-35.89V.61h34.67v88.1c0,9.52,2.17,16.35,6.53,20.5,4.35,4.15,11.28,6.22,20.8,6.22s16.55-2.06,20.9-6.17c4.35-4.11,6.53-10.96,6.53-20.55V.61h34.67v91.87c0,16.79-5.15,28.75-15.45,35.89-10.3,7.14-25.85,10.71-46.65,10.71s-36.34-3.57-46.6-10.71Z"></path>
      <path class="cls-1" d="M242.55,126.49c-8.53-8.8-12.8-21.26-12.8-37.37h34.67c0,11.76,2.5,19.22,7.5,22.38,5,3.16,11.57,4.74,19.73,4.74s14.82-1.24,19.78-3.72c4.96-2.48,7.44-6.3,7.44-11.47,0-6.12-3.4-10.3-10.2-12.54-6.8-2.24-16.18-4.55-28.14-6.93-18.97-4.01-32.16-8.6-39.56-13.77-7.41-5.17-11.12-13.66-11.12-25.49s4.35-21.58,13.05-29.88c8.7-8.29,24.84-12.44,48.43-12.44s39.9,4.52,48.54,13.56c8.63,9.04,12.95,21.14,12.95,36.3h-34.67c0-11.42-2.57-18.68-7.7-21.77-5.13-3.09-11.64-4.64-19.53-4.64-8.36,0-15.04,1.29-20.04,3.87-5,2.58-7.5,6.25-7.5,11.01,0,6.39,3.47,10.71,10.4,12.95,6.93,2.24,16.32,4.56,28.14,6.93,19.64,4.08,33.07,8.5,40.28,13.26,7.2,4.76,10.81,13.02,10.81,24.78s-4.23,22.28-12.7,30.74c-8.46,8.46-24.59,12.69-48.38,12.69s-40.87-4.4-49.4-13.2Z"></path>
      <path class="cls-1" d="M440.71,30.46V.46h-69.7s0,0,0,0v97.48c0,13.73,4.9,24.04,14.69,30.94,9.79,6.9,24.57,10.35,44.35,10.35,3.73,0,7.28-.12,10.66-.37v-24.05c-2.96.79-6.48,1.17-10.55,1.17-9.11,0-15.49-1.86-19.12-5.6-3.64-3.74-5.46-9.55-5.46-17.44V30.46h35.13Z"></path>
      <path class="cls-1" d="M69.7.46h0S0,.46,0,.46v30h35.13v62.48c0,7.89-1.82,13.7-5.46,17.44-3.63,3.74-10.01,5.6-19.12,5.6-4.07,0-7.59-.38-10.55-1.17v24.05c3.38.25,6.93.37,10.66.37,19.78,0,34.56-3.45,44.35-10.35,9.79-6.9,14.69-17.21,14.69-30.94V.46h0Z"></path>
    </g>
  </g>
</svg>